<?xml version="1.0" standalone="no"?>
<!DOCTYPE svg PUBLIC "-//W3C//DTD SVG 20010904//EN"
 "http://www.w3.org/TR/2001/REC-SVG-20010904/DTD/svg10.dtd">
<svg version="1.0" xmlns="http://www.w3.org/2000/svg"
 width="316.000000pt" height="310.000000pt" viewBox="0 0 316.000000 310.000000"
 preserveAspectRatio="xMidYMid meet">

<g transform="translate(0.000000,310.000000) scale(0.100000,-0.100000)"
fill="#000000" stroke="none">
<path d="M1528 3043 c29 -2 74 -2 100 0 26 2 2 3 -53 3 -55 0 -76 -1 -47 -3z"/>
<path d="M1398 3033 c6 -2 18 -2 25 0 6 3 1 5 -13 5 -14 0 -19 -2 -12 -5z"/>
<path d="M1728 3033 c6 -2 18 -2 25 0 6 3 1 5 -13 5 -14 0 -19 -2 -12 -5z"/>
<path d="M1808 3023 c7 -3 16 -2 19 1 4 3 -2 6 -13 5 -11 0 -14 -3 -6 -6z"/>
<path d="M1420 2960 c0 -6 -29 -10 -66 -10 -41 0 -63 -4 -59 -10 5 -8 -49 -16
-78 -11 -5 1 -6 -3 -2 -9 4 -6 -8 -10 -29 -10 -20 0 -36 -5 -36 -11 0 -7 -11
-9 -30 -5 -22 4 -30 2 -30 -9 0 -8 -8 -15 -17 -15 -15 0 -16 2 -3 10 10 7 11
10 2 10 -7 0 -20 -9 -29 -20 -10 -11 -22 -20 -28 -20 -5 0 -3 5 5 10 24 15 4
12 -34 -7 -19 -9 -33 -20 -30 -25 3 -4 -6 -8 -21 -8 -14 0 -28 -7 -31 -15 -4
-8 -10 -12 -15 -9 -5 3 -9 0 -9 -5 0 -6 -3 -10 -7 -10 -20 3 -33 -4 -73 -41
-24 -22 -50 -38 -57 -36 -7 3 -15 0 -19 -6 -5 -7 -2 -8 6 -3 9 6 11 4 6 -4 -5
-7 -14 -10 -22 -7 -7 3 -25 -9 -40 -27 -37 -44 -223 -236 -204 -212 8 11 21
29 30 41 8 11 -4 0 -27 -25 -23 -26 -42 -50 -41 -56 2 -19 -14 -45 -25 -38 -5
3 -7 2 -4 -4 8 -13 -27 -65 -38 -56 -4 5 -5 3 -1 -4 4 -7 -2 -21 -13 -32 -11
-11 -17 -22 -14 -25 3 -3 -1 -8 -10 -12 -9 -3 -13 -12 -10 -21 4 -11 2 -14 -5
-9 -11 6 -17 -5 -13 -26 0 -5 -4 -8 -10 -8 -5 0 -7 -4 -4 -10 3 -6 1 -10 -5
-10 -6 0 -8 -4 -5 -10 3 -5 1 -10 -5 -10 -7 0 -9 -7 -6 -16 3 -8 2 -13 -3 -10
-11 7 -63 -132 -55 -146 9 -14 -18 -128 -29 -121 -5 3 -6 -3 -3 -15 4 -11 2
-23 -3 -26 -5 -4 -7 -22 -4 -41 3 -22 2 -35 -5 -35 -11 0 -12 -21 -13 -180 0
-159 1 -174 10 -179 5 -3 10 -26 12 -51 1 -25 6 -49 9 -55 4 -5 10 -28 14 -50
5 -30 4 -36 -4 -25 -9 12 -10 12 -6 -5 3 -11 8 -33 12 -48 4 -16 10 -24 13
-18 4 5 14 -11 23 -37 13 -36 14 -43 2 -28 -7 11 -14 15 -14 9 0 -7 7 -18 15
-26 8 -8 12 -17 9 -20 -9 -8 19 -56 29 -50 6 4 8 0 4 -10 -3 -10 -2 -17 4 -17
6 0 8 -4 4 -9 -3 -6 4 -19 16 -30 12 -11 19 -23 16 -28 -3 -5 3 -22 14 -39 10
-16 19 -24 19 -19 0 16 44 -56 45 -75 2 -21 63 -101 74 -97 5 1 30 -23 57 -53
27 -30 37 -46 24 -35 -20 16 -19 13 4 -13 17 -17 35 -32 41 -32 6 0 22 -12 36
-28 l24 -27 -30 25 -30 25 25 -28 c13 -15 30 -25 38 -22 7 2 11 1 8 -4 -7 -11
22 -36 43 -36 9 0 15 -5 14 -12 -2 -7 3 -10 10 -7 7 2 30 -11 51 -31 21 -19
42 -32 47 -29 5 3 8 2 7 -3 -2 -4 1 -9 6 -10 5 -1 12 -6 15 -11 3 -6 13 -12
21 -14 8 -2 21 -10 28 -18 8 -8 11 -9 7 -3 -4 9 -1 11 9 7 9 -3 13 -10 10 -15
-5 -8 9 -13 29 -10 4 0 7 -3 7 -7 0 -5 11 -14 25 -20 35 -16 43 -15 19 3 -14
11 -7 10 26 -3 25 -10 66 -25 92 -32 26 -8 45 -16 43 -19 -2 -4 13 -7 33 -9
20 -1 39 -7 42 -12 4 -6 14 -8 22 -5 9 4 19 2 22 -4 4 -6 14 -7 22 -4 9 3 20
0 24 -7 11 -18 449 -18 460 0 5 8 17 10 34 6 14 -3 26 -2 26 3 0 5 9 7 20 4
11 -3 20 -1 20 5 0 9 21 15 98 29 17 3 32 10 32 15 0 6 12 8 28 5 15 -3 38 1
52 8 14 8 21 15 15 15 -13 0 16 20 30 20 6 0 3 -5 -5 -11 -12 -9 -12 -10 3 -5
10 3 21 6 23 6 3 0 2 5 -2 12 -4 6 -3 8 4 5 15 -10 43 3 35 16 -4 6 -1 7 7 2
8 -5 20 1 32 16 11 13 17 18 13 12 -4 -9 -1 -11 9 -7 9 3 13 11 9 17 -4 6 0 8
10 4 9 -3 19 -1 23 5 5 7 2 8 -6 3 -9 -5 -11 -4 -6 3 4 7 16 12 27 12 10 0 19
5 19 10 0 6 6 10 13 10 7 0 18 9 25 20 7 11 21 20 32 20 11 0 19 5 18 11 -2 6
3 14 11 17 10 3 11 0 5 -9 -4 -8 6 -3 23 11 32 26 37 44 5 19 -10 -8 -7 -4 6
9 13 12 29 19 35 16 7 -4 9 -4 5 0 -7 8 49 72 60 69 4 -1 13 9 20 23 7 13 17
22 21 20 4 -3 19 7 32 22 l24 27 -27 -24 c-16 -14 -28 -20 -28 -14 0 13 45 55
52 48 3 -3 11 1 18 10 8 10 9 15 1 15 -6 0 -11 -5 -11 -12 0 -6 -3 -8 -7 -4
-4 4 5 17 20 30 15 13 27 29 27 35 0 6 7 14 15 17 8 4 12 10 9 15 -3 5 0 9 5
9 6 0 11 6 11 14 0 7 10 21 23 30 12 9 16 14 9 10 -12 -5 -12 -2 -2 17 17 32
25 39 17 14 -7 -20 -7 -20 8 0 9 11 13 25 10 33 -2 7 -1 11 4 8 4 -3 13 6 20
20 6 14 7 23 2 20 -5 -3 -7 3 -4 15 4 12 9 16 13 10 3 -6 13 4 23 24 21 45 22
54 1 29 -15 -19 -16 -19 -9 1 4 11 10 28 12 37 3 10 9 15 14 12 5 -3 8 -2 7 3
-4 16 13 83 22 83 5 0 7 7 4 15 -4 8 -1 15 6 15 7 0 9 8 5 20 -4 12 -2 20 5
20 6 0 8 10 4 26 -5 19 -4 25 5 20 12 -8 16 23 12 82 -1 23 2 32 9 27 8 -5 10
9 8 48 -2 31 0 53 4 51 10 -6 10 81 1 193 -3 46 -10 80 -15 77 -5 -4 -6 9 -3
30 4 21 3 36 -3 36 -5 0 -7 12 -4 26 3 17 1 25 -6 21 -6 -5 -10 6 -9 29 1 19
-4 38 -10 42 -5 4 -12 18 -15 32 -3 14 -17 57 -32 95 -14 39 -19 61 -11 51 8
-11 15 -16 15 -12 0 12 -32 71 -42 77 -5 3 -9 10 -9 15 2 18 -11 44 -19 39 -4
-3 -11 2 -14 11 -4 9 -2 13 5 8 8 -5 8 -1 0 14 -6 11 -17 22 -26 26 -8 3 -15
14 -15 24 0 11 -10 27 -22 36 -13 9 -16 14 -8 10 8 -4 -2 10 -23 31 -21 22
-36 44 -33 50 2 7 -12 30 -32 52 -21 21 -28 29 -18 16 11 -13 16 -23 12 -23
-11 0 -52 53 -49 62 2 5 -3 7 -10 5 -6 -1 -11 4 -10 11 2 6 -3 12 -10 12 -8 0
-22 10 -33 22 -12 13 -13 18 -4 13 13 -8 13 -6 1 8 -7 9 -17 15 -21 12 -4 -3
-23 9 -41 27 -19 17 -25 25 -14 17 16 -11 16 -9 -3 13 -15 17 -30 24 -43 21
-11 -3 -19 0 -19 6 0 7 5 9 12 5 7 -4 8 -3 4 4 -4 6 -13 9 -21 6 -8 -4 -18 1
-21 10 -3 9 -10 14 -14 11 -4 -2 -19 6 -32 18 -14 13 -30 21 -35 20 -6 -2 -15
1 -19 8 -5 8 -3 9 6 4 8 -5 11 -4 6 3 -4 6 -13 9 -21 6 -9 -4 -18 1 -21 11 -8
21 -130 79 -146 69 -6 -4 -8 -3 -5 4 4 6 -12 17 -40 26 -53 18 -64 20 -43 6 9
-6 10 -10 3 -10 -20 0 -43 12 -38 20 3 5 -8 6 -25 4 -16 -3 -30 -1 -30 4 0 8
-15 12 -55 13 -11 0 -22 5 -26 11 -4 6 -32 10 -63 10 -31 0 -56 4 -56 9 0 5
-68 9 -155 9 -97 0 -155 -4 -155 -10z m655 -80 c13 -6 15 -9 5 -9 -8 0 -22 4
-30 9 -18 12 -2 12 25 0z m-609 -195 c3 -60 1 -75 -11 -75 -8 0 -15 13 -17 33
-2 24 -8 33 -25 35 -16 2 -23 -2 -23 -12 0 -21 -13 -20 -33 2 -20 22 -13 32
22 32 30 0 59 16 49 26 -4 3 -33 3 -64 -1 l-56 -7 6 -34 c3 -19 9 -50 13 -70
10 -61 -20 -36 -37 29 -12 49 -18 57 -37 57 -28 0 -28 3 -3 -60 24 -61 25 -70
5 -70 -8 0 -15 7 -15 15 0 8 -3 15 -6 15 -3 0 -12 -7 -20 -15 -17 -17 -56 -20
-82 -6 -10 5 -27 5 -42 -1 l-25 -9 28 -15 c30 -16 36 -34 11 -34 -23 0 -94 43
-90 55 2 6 10 9 20 7 18 -3 19 -1 10 22 -5 14 -11 13 -45 -5 -44 -22 -43 -28
8 -96 30 -39 11 -59 -21 -22 -22 26 -51 27 -60 3 -4 -9 3 -18 19 -24 26 -10
34 -30 13 -30 -28 0 -98 34 -98 47 0 9 6 13 15 9 9 -3 15 0 15 9 0 22 -20 28
-39 11 -19 -17 -41 -21 -41 -8 0 20 234 162 266 162 1 0 2 -12 1 -27 -2 -25 1
-28 28 -25 37 5 56 19 48 38 -8 22 -25 17 -18 -6 7 -22 5 -23 -19 -14 -32 12
-12 64 24 64 9 0 25 -9 35 -20 15 -17 16 -24 7 -46 -16 -34 -15 -36 7 -25 37
20 36 75 -2 85 -31 8 -13 21 58 41 61 18 207 44 214 39 2 -2 5 -37 7 -79z
m279 75 c14 -5 30 -20 35 -32 l9 -23 0 23 c1 13 7 22 17 22 14 0 16 -8 11 -42
l-6 -43 13 34 c15 42 29 48 61 27 29 -19 32 -47 9 -70 -9 -9 -14 -28 -12 -43
3 -24 7 -19 23 31 18 53 37 77 52 63 3 -3 -2 -27 -11 -53 -19 -58 -20 -64 -3
-64 8 0 28 20 46 45 20 29 37 42 46 38 8 -3 15 -10 15 -15 0 -25 -24 -138 -29
-138 -11 0 -33 17 -34 26 -1 5 -11 9 -22 9 -11 0 -41 7 -67 15 -43 13 -48 17
-49 45 l-1 30 -10 -27 c-10 -29 -22 -35 -33 -18 -3 5 -12 7 -19 4 -8 -3 -17
-1 -20 5 -4 6 -19 8 -34 5 -53 -9 -55 -1 -26 134 5 25 4 25 39 12z m-140 -50
c8 -27 -12 -52 -39 -48 -21 3 -32 28 -22 54 8 22 54 18 61 -6z m-895 -38 c0
-4 -10 -13 -22 -21 -23 -14 -23 -14 -4 8 20 22 26 25 26 13z m230 -47 c0 -8
-7 -15 -15 -15 -8 0 -15 7 -15 15 0 8 7 15 15 15 8 0 15 -7 15 -15z m1215 -15
c3 -5 -1 -24 -10 -42 -8 -18 -10 -25 -3 -15 7 10 18 26 24 34 19 27 37 5 30
-36 l-7 -36 18 28 c19 29 28 33 38 17 8 -12 -67 -131 -80 -126 -5 2 -9 21 -8
42 l3 39 -18 -27 c-16 -25 -19 -25 -45 -12 -15 8 -27 17 -27 20 0 11 65 124
72 124 4 0 10 -4 13 -10z m149 -99 c20 -22 4 -40 -19 -21 -13 11 -15 6 -15
-34 0 -40 -4 -48 -25 -58 -19 -8 -28 -8 -40 2 -25 21 -19 41 11 34 25 -6 26
-5 20 21 -5 18 -2 35 9 51 19 29 36 30 59 5z m-650 -92 l8 -87 37 -6 c65 -11
68 -9 107 64 21 39 44 70 51 70 19 0 143 -51 143 -59 0 -3 -9 -38 -20 -76 -11
-38 -20 -74 -20 -80 0 -5 20 -22 44 -37 l44 -26 64 54 c34 29 66 53 70 51 14
-5 108 -99 108 -108 0 -6 -21 -37 -47 -70 -50 -64 -50 -67 -3 -129 l18 -24 69
22 c38 12 76 22 85 22 14 0 68 -108 68 -136 0 -7 -31 -30 -70 -53 -38 -23 -67
-47 -65 -54 2 -6 9 -31 15 -54 10 -39 13 -43 43 -43 18 0 56 -3 85 -7 l53 -6
-3 -81 -3 -81 -77 -11 c-43 -5 -79 -12 -81 -15 -3 -2 -7 -27 -11 -54 l-6 -50
42 -23 c24 -12 57 -31 75 -41 l31 -20 -26 -70 c-30 -80 -29 -80 -128 -55 -36
9 -66 15 -67 13 -2 -2 -15 -23 -30 -47 l-28 -43 50 -58 c28 -32 51 -63 51 -67
0 -5 -69 -9 -152 -10 -138 0 -169 -4 -315 -36 -174 -39 -210 -53 -260 -101
l-32 -30 -22 27 c-33 43 -87 64 -261 102 -171 38 -398 58 -412 36 -5 -8 108
-119 147 -144 7 -4 -1 -17 -19 -35 -16 -15 -39 -41 -51 -58 -17 -23 -24 -27
-34 -18 -9 9 -3 22 26 58 50 60 37 71 -19 16 -26 -26 -49 -40 -56 -36 -8 5 -5
14 10 30 15 16 20 30 15 44 -9 31 -35 26 -41 -8 -4 -18 -11 -28 -19 -25 -9 4
-10 19 -3 62 5 31 11 58 13 60 9 9 26 -11 21 -24 -7 -18 8 -18 23 -1 8 11 6
18 -9 32 -11 10 -20 24 -20 32 0 7 -9 13 -20 13 -30 0 -24 18 25 76 25 28 45
56 45 61 0 16 -45 93 -55 93 -5 0 -35 -7 -65 -15 -92 -25 -94 -24 -123 53
l-25 67 25 21 c14 12 47 32 74 44 l48 23 -6 46 c-3 25 -10 51 -15 56 -5 6 -41
15 -81 20 l-72 10 -3 81 -3 81 53 6 c29 4 68 7 85 7 27 0 34 4 39 28 3 15 10
39 14 54 8 23 5 30 -13 39 -12 7 -45 27 -74 45 l-52 33 28 68 c16 37 35 69 42
72 6 2 45 -7 85 -19 41 -13 75 -22 77 -19 1 2 15 21 30 42 31 41 31 38 -25
113 -21 28 -38 58 -38 66 0 9 25 37 55 62 l55 47 60 -50 c34 -28 66 -51 72
-51 8 0 64 30 86 46 2 1 -6 37 -18 80 -11 42 -19 82 -17 88 5 12 144 63 150
56 2 -3 20 -35 41 -72 39 -71 42 -73 107 -62 l36 6 7 81 c4 44 9 84 12 89 3 5
36 8 72 6 l67 -3 9 -86z m750 4 c64 -65 72 -83 38 -83 -9 0 -32 -16 -52 -35
-26 -25 -39 -32 -50 -25 -12 8 -8 16 23 48 53 54 46 75 -8 22 -38 -37 -45 -41
-51 -26 -5 12 4 29 30 55 51 52 32 61 -21 9 -29 -28 -46 -39 -53 -32 -7 7 1
24 26 52 19 23 33 46 29 52 -7 12 2 30 15 30 5 0 38 -30 74 -67z m287 10 c13
-16 12 -17 -3 -4 -10 7 -18 15 -18 17 0 8 8 3 21 -13z m-1951 -17 c0 -4 18
-30 40 -56 22 -26 40 -51 40 -54 0 -17 -30 -1 -65 34 l-39 40 -38 -37 c-20
-20 -35 -40 -32 -45 4 -5 13 0 21 11 8 12 23 21 33 21 20 0 50 -35 50 -57 0
-21 -28 -15 -35 7 -3 11 -13 20 -21 20 -24 0 -15 -27 17 -53 31 -24 33 -52 2
-40 -9 4 -19 -1 -25 -10 -11 -21 -51 -22 -68 -3 -14 18 -10 58 8 64 7 2 12 -6
12 -22 0 -16 6 -26 14 -26 26 0 23 25 -5 48 l-27 22 -31 -42 c-17 -23 -31 -44
-31 -47 0 -4 24 -19 54 -34 36 -19 53 -33 49 -43 -4 -10 -18 -7 -63 16 -40 20
-61 26 -66 19 -4 -7 -1 -15 7 -20 56 -32 62 -59 13 -59 -16 0 -23 4 -18 11 3
6 0 15 -7 20 -9 5 -18 1 -26 -14 -19 -34 -17 -36 42 -62 39 -18 53 -29 49 -39
-5 -13 -15 -11 -62 10 -38 17 -59 21 -66 14 -14 -14 -1 -24 57 -45 26 -10 47
-24 47 -31 0 -19 -10 -18 -72 6 -40 15 -54 17 -60 7 -14 -22 -2 -31 55 -45 35
-9 57 -19 57 -28 0 -8 -7 -14 -15 -14 -10 0 -15 -10 -15 -33 0 -44 -15 -57
-67 -57 -42 0 -43 1 -44 33 l-1 32 -13 -40 c-7 -22 -10 -43 -6 -47 4 -4 31
-11 61 -15 41 -6 56 -13 58 -27 3 -15 -1 -17 -25 -12 -95 19 -100 18 -106 -3
-7 -28 -1 -31 65 -31 45 0 58 -3 58 -15 0 -8 -5 -15 -12 -15 -6 0 -4 -8 6 -19
13 -14 14 -21 5 -26 -7 -5 -16 -1 -21 9 -8 15 -12 14 -29 -9 -14 -16 -30 -25
-49 -25 -16 0 -32 -4 -35 -10 -3 -5 -11 -10 -17 -10 -7 0 -8 24 -4 73 l7 72
-20 -25 c-17 -21 -22 -23 -33 -12 -11 11 -9 17 11 33 13 10 18 19 13 19 -6 0
-14 -4 -17 -10 -9 -15 -25 -12 -25 5 0 8 17 23 37 34 36 18 39 24 69 124 l31
105 -34 -15 c-38 -15 -49 -12 -40 11 3 8 22 18 42 22 19 3 42 16 50 27 13 18
12 23 -10 43 -14 13 -25 30 -25 40 0 19 51 69 96 92 41 22 151 166 129 170
-20 5 -30 49 -15 67 9 11 29 14 71 13 33 -2 59 -7 59 -12z m1754 -85 c3 -5
-14 -24 -39 -42 -24 -19 -45 -40 -45 -46 0 -20 9 -16 57 23 33 27 47 34 56 25
8 -8 2 -19 -23 -40 -69 -59 -97 -63 -120 -21 -10 19 -6 27 36 66 48 44 68 52
78 35z m69 -90 c21 -37 21 -43 0 -38 -10 2 -39 -11 -65 -29 -25 -18 -49 -30
-52 -27 -14 14 -4 32 33 57 21 15 41 36 44 47 7 27 20 24 40 -10z m57 -93 c0
-6 -13 -8 -30 -4 -26 5 -30 3 -28 -12 2 -13 -3 -16 -26 -14 -22 2 -27 0 -23
-12 3 -8 0 -19 -7 -25 -9 -8 -17 -3 -29 18 l-17 29 62 36 63 35 18 -20 c9 -12
17 -26 17 -31z m48 -114 c2 -25 -3 -37 -25 -54 -19 -16 -22 -21 -8 -15 49 19
65 18 74 -6 11 -29 -3 -49 -21 -31 -16 16 -28 15 -28 -2 0 -8 -7 -16 -15 -20
-8 -3 -15 -1 -15 5 0 6 -14 9 -32 7 -37 -4 -47 14 -16 30 l23 11 -26 0 c-34 1
-53 24 -45 56 8 32 51 55 96 52 31 -2 35 -5 38 -33z m-2427 3 c-10 -9 -11 -8
-5 6 3 10 9 15 12 12 3 -3 0 -11 -7 -18z m-21 -64 c-11 -17 -11 -17 -6 0 3 10
6 24 7 30 0 9 2 9 5 0 3 -7 0 -20 -6 -30z m2532 -170 c12 -51 14 -70 5 -75 -7
-4 -17 -1 -23 7 -14 19 -24 19 -24 0 0 -9 11 -20 24 -25 32 -12 52 -48 37 -63
-8 -8 -15 -5 -27 11 -23 34 -84 27 -84 -9 0 -17 8 -19 60 -19 53 0 60 -2 60
-20 0 -16 -7 -20 -30 -20 -16 0 -30 -4 -30 -10 0 -5 13 -10 30 -10 27 0 29 -2
27 -37 -2 -32 -6 -38 -37 -49 l-35 -12 38 -1 c26 -1 37 -5 37 -16 0 -12 -15
-15 -75 -15 -84 0 -99 15 -42 43 l32 16 -32 0 c-31 1 -33 3 -33 36 0 32 2 35
30 35 17 0 30 5 30 10 0 6 -13 10 -30 10 -23 0 -30 5 -30 19 0 11 -3 26 -6 35
-4 10 6 27 25 47 17 17 29 35 25 40 -9 15 -24 10 -24 -7 0 -27 -35 -11 -38 17
-3 24 1 27 49 35 30 5 54 15 57 23 3 10 0 12 -14 7 -10 -4 -37 -10 -61 -13
-35 -5 -43 -3 -43 10 0 11 17 19 55 28 33 7 55 17 55 26 0 7 6 13 13 13 8 0
20 -27 29 -67z m-2252 -379 c0 -14 -32 -24 -82 -24 -33 0 -38 -3 -38 -24 l0
-24 60 13 c58 12 79 7 65 -15 -3 -5 -17 -10 -30 -10 -13 0 -27 -4 -30 -10 -3
-5 1 -10 9 -10 9 0 16 -7 16 -15 0 -8 -7 -15 -15 -15 -20 0 -19 -19 2 -27 11
-4 22 1 31 15 17 26 32 28 32 5 0 -24 -30 -53 -55 -53 -30 0 -45 19 -45 57 0
24 -5 33 -16 33 -17 0 -15 -26 6 -110 9 -33 11 -35 52 -34 33 1 44 6 52 23 10
23 36 29 36 9 0 -7 -14 -37 -30 -66 -31 -52 -57 -62 -46 -16 5 19 2 24 -14 24
-11 0 -20 -4 -20 -8 0 -15 32 -102 37 -102 3 0 29 13 59 30 37 20 56 25 60 18
4 -7 0 -16 -8 -22 -14 -8 -14 -13 -3 -30 9 -14 10 -29 4 -43 -11 -30 -63 -32
-79 -4 -11 21 2 37 20 26 6 -3 10 1 10 10 0 13 -4 14 -22 4 -13 -6 -25 -13
-26 -15 -2 -1 8 -23 23 -48 l27 -46 53 30 c60 34 65 35 65 16 0 -8 -22 -28
-50 -45 -32 -20 -48 -36 -44 -44 4 -11 -6 -15 -42 -15 -67 -2 -74 7 -74 99 0
64 -6 93 -30 154 -33 83 -70 235 -70 287 l0 33 75 1 c52 0 75 -3 75 -12z
m2252 -21 c27 -25 19 -55 -22 -75 -34 -17 -34 -18 -8 -18 15 0 30 -5 34 -11
13 -21 -12 -27 -65 -17 -41 9 -56 9 -59 0 -4 -13 -32 -17 -32 -4 1 28 15 52
32 52 18 0 18 1 4 16 -58 57 54 113 116 57z m-51 -159 c25 -13 30 -20 27 -47
-2 -27 -9 -34 -38 -44 -19 -7 -30 -12 -23 -12 22 -1 36 -41 24 -67 -12 -27
-51 -33 -51 -9 0 8 7 15 15 15 8 0 15 4 15 10 0 14 -60 42 -77 36 -21 -8 -6
-25 17 -19 22 6 26 -11 11 -36 -8 -12 -14 -13 -36 -3 -32 15 -41 36 -27 68 8
17 20 24 39 24 l26 0 -21 23 c-26 28 -27 40 -6 61 20 20 66 20 105 0z m-2494
-106 c-3 -8 -6 -5 -6 6 -1 11 2 17 5 13 3 -3 4 -12 1 -19z m2353 -93 c14 -8
44 -14 68 -15 23 0 42 -4 42 -8 0 -15 -23 -30 -37 -25 -13 5 -13 3 -2 -15 10
-16 11 -24 2 -33 -8 -8 -18 -1 -37 24 -15 19 -40 40 -56 47 -18 7 -27 17 -23
26 6 17 11 17 43 -1z m-280 -138 c0 -7 20 -33 45 -57 43 -43 49 -64 17 -58
-10 1 -30 -6 -45 -16 -23 -16 -32 -17 -53 -7 -21 9 -24 14 -14 26 12 15 6 35
-11 35 -11 0 -69 -51 -69 -61 0 -4 13 -2 29 4 23 8 33 8 45 -2 21 -18 22 -81
1 -81 -10 0 -15 10 -15 30 0 18 -5 30 -13 30 -24 0 -26 -11 -6 -43 23 -38 24
-47 5 -47 -8 0 -23 14 -33 30 -20 34 -26 36 -43 15 -10 -12 -10 -18 0 -30 7
-8 19 -15 26 -15 8 0 14 -7 14 -15 0 -22 -28 -18 -54 8 -13 13 -31 24 -39 24
-13 0 -13 -6 5 -41 12 -23 29 -47 39 -54 11 -7 19 -19 19 -27 0 -25 -42 -55
-78 -55 -44 0 -38 23 8 30 18 3 35 11 38 18 3 9 -3 11 -21 7 -22 -6 -24 -4
-20 17 5 30 -17 61 -39 53 -9 -4 -14 -13 -11 -21 3 -8 -1 -14 -8 -14 -24 0
-43 18 -44 41 0 12 -6 24 -14 27 -10 3 -12 -1 -9 -14 26 -90 31 -114 24 -121
-4 -4 -13 -1 -20 9 -9 12 -16 14 -29 6 -39 -21 -86 39 -55 70 15 15 48 16 48
2 0 -5 -7 -10 -15 -10 -20 0 -19 -29 1 -37 23 -9 34 15 22 48 -11 33 -11 33
-56 17 -33 -12 -34 -14 -28 -53 3 -22 9 -50 12 -62 5 -17 2 -23 -9 -23 -10 0
-20 19 -29 58 -8 31 -19 58 -26 58 -24 3 -26 4 -14 16 7 7 12 24 12 40 0 46
68 63 135 34 27 -12 35 -11 80 12 68 34 185 114 215 147 l25 28 -38 -6 c-32
-5 -38 -3 -35 11 3 14 13 16 50 14 25 -2 49 2 53 8 9 14 25 13 25 -3z m-1076
-156 c10 -9 26 -32 37 -52 17 -33 25 -38 97 -58 43 -11 84 -21 90 -21 7 0 12
-4 12 -10 0 -5 -4 -10 -9 -10 -5 0 -14 -28 -20 -61 -12 -68 -16 -78 -32 -62
-7 7 -7 24 0 54 13 54 13 69 3 69 -5 0 -16 -27 -25 -60 -17 -59 -32 -75 -43
-45 -4 8 -18 15 -34 15 -34 0 -57 26 -55 66 2 44 12 55 43 48 21 -4 24 -3 12
5 -35 25 -57 13 -80 -44 -21 -52 -45 -69 -45 -32 0 9 -10 24 -23 32 -28 20
-29 61 -1 75 24 14 49 6 49 -14 0 -9 -7 -12 -20 -9 -15 4 -20 0 -20 -16 0 -31
27 -26 45 9 l16 31 -37 15 c-36 15 -38 15 -55 -8 -10 -12 -24 -35 -30 -50 -11
-27 -39 -39 -39 -17 0 6 12 30 26 54 16 29 23 52 19 65 -4 14 -2 20 9 20 8 0
19 6 23 14 17 28 52 27 87 -3z m-779 -47 c9 -15 12 -23 6 -20 -11 7 -35 46
-28 46 3 0 12 -12 22 -26z m1268 -90 c4 -4 3 -12 -1 -18 -3 -6 -5 -40 -3 -75
2 -50 0 -62 -11 -59 -7 3 -14 18 -16 34 -10 109 -32 130 -32 29 0 -51 -3 -65
-15 -65 -8 0 -15 6 -15 14 0 9 -8 12 -24 9 -17 -4 -29 3 -45 23 -20 25 -21 30
-7 40 22 16 20 32 -6 36 -12 2 -23 8 -25 15 -3 9 21 13 89 16 51 1 96 4 99 5
3 1 9 -1 12 -4z m-385 -196 c19 -16 14 -54 -9 -70 -21 -13 -21 -15 -5 -47 l17
-32 35 70 c19 38 38 72 43 75 14 9 28 -15 46 -79 10 -33 20 -66 22 -72 3 -7
-2 -13 -10 -13 -8 0 -18 11 -21 25 -5 21 -12 25 -41 25 -25 0 -35 -5 -40 -20
-4 -14 -15 -20 -35 -20 -23 0 -30 7 -43 39 -21 52 -67 71 -67 29 0 -13 -4 -29
-9 -37 -17 -26 -22 9 -11 67 19 96 14 91 68 80 26 -6 53 -15 60 -20z m651 -15
c14 -55 17 -107 7 -113 -11 -6 -21 27 -31 99 -8 61 9 70 24 14z m-50 -36 c6
-35 11 -72 11 -81 0 -31 -25 -11 -28 22 -3 33 -14 38 -61 25 -20 -5 -22 -10
-18 -39 4 -24 2 -34 -8 -34 -13 0 -17 17 -31 114 -5 39 -4 48 7 44 8 -2 15
-17 17 -31 3 -24 7 -27 44 -27 40 0 40 0 36 35 -7 63 19 39 31 -28z m-371 -14
l37 -58 3 50 c6 89 22 75 22 -18 0 -53 -4 -87 -10 -87 -6 0 -28 28 -50 62
l-40 61 0 -56 c0 -54 -11 -79 -25 -56 -10 15 5 159 16 159 5 0 26 -26 47 -57z
m208 43 c14 -11 16 -18 8 -26 -8 -8 -14 -7 -24 5 -15 18 -51 20 -68 3 -7 -7
-12 -28 -12 -48 0 -20 5 -41 12 -48 19 -19 55 -14 72 10 11 15 19 19 26 12 6
-6 5 -17 -6 -32 -23 -33 -86 -31 -113 4 -42 54 -11 134 53 134 18 0 41 -6 52
-14z m364 -180 c0 -2 -7 -7 -16 -10 -8 -3 -12 -2 -9 4 6 10 25 14 25 6z"/>
<path d="M914 2546 c-9 -23 7 -38 26 -26 13 8 13 11 -2 26 -16 17 -18 17 -24
0z"/>
<path d="M1730 2709 c0 -5 5 -7 10 -4 6 3 10 8 10 11 0 2 -4 4 -10 4 -5 0 -10
-5 -10 -11z"/>
<path d="M1857 2691 c-3 -12 -1 -21 3 -21 15 0 23 21 12 32 -6 6 -11 2 -15
-11z"/>
<path d="M1766 2691 c-4 -7 -5 -15 -2 -18 9 -9 19 4 14 18 -4 11 -6 11 -12 0z"/>
<path d="M1720 2654 c0 -8 5 -12 10 -9 6 3 10 10 10 16 0 5 -4 9 -10 9 -5 0
-10 -7 -10 -16z"/>
<path d="M1801 2644 c0 -11 3 -14 6 -6 3 7 2 16 -1 19 -3 4 -6 -2 -5 -13z"/>
<path d="M1522 2418 l2 -63 3 58 4 57 43 0 42 0 3 -52 c3 -74 11 -74 11 0 l0
62 -55 0 -55 0 2 -62z"/>
<path d="M1250 2420 c-18 -12 -2 -12 25 0 13 6 15 9 5 9 -8 0 -22 -4 -30 -9z"/>
<path d="M1850 2423 c0 -5 14 -8 31 -9 20 -1 26 2 17 7 -16 11 -48 12 -48 2z"/>
<path d="M1194 2395 c-10 -8 -14 -14 -9 -14 6 0 19 6 29 14 11 8 15 15 10 15
-6 0 -19 -7 -30 -15z"/>
<path d="M1816 2343 c-6 -14 -5 -15 5 -6 7 7 10 15 7 18 -3 3 -9 -2 -12 -12z"/>
<path d="M1330 2334 c0 -6 7 -19 16 -30 14 -18 14 -18 3 6 -14 31 -19 36 -19
24z"/>
<path d="M1632 2316 c1 -14 5 -23 9 -20 7 4 0 44 -7 44 -2 0 -3 -11 -2 -24z"/>
<path d="M1935 2319 c-4 -6 -5 -12 -2 -15 2 -3 7 2 10 11 7 17 1 20 -8 4z"/>
<path d="M1797 2305 c-4 -8 -13 -15 -21 -15 -8 0 -17 -4 -20 -9 -4 -5 3 -7 14
-4 21 6 46 31 38 39 -3 3 -8 -2 -11 -11z"/>
<path d="M1448 2293 c7 -3 16 -2 19 1 4 3 -2 6 -13 5 -11 0 -14 -3 -6 -6z"/>
<path d="M1310 2280 c-9 -6 -10 -10 -3 -10 6 0 15 5 18 10 8 12 4 12 -15 0z"/>
<path d="M1375 2280 c4 -6 11 -8 16 -5 14 9 11 15 -7 15 -8 0 -12 -5 -9 -10z"/>
<path d="M1410 2286 c0 -2 7 -7 16 -10 8 -3 12 -2 9 4 -6 10 -25 14 -25 6z"/>
<path d="M960 2246 c-9 -12 -8 -14 7 -10 11 3 35 -12 66 -40 26 -24 47 -41 47
-37 0 4 -24 28 -54 54 -45 38 -56 44 -66 33z"/>
<path d="M2144 2228 l-29 -31 33 23 c17 13 32 27 32 32 0 13 -5 10 -36 -24z"/>
<path d="M1172 2196 c-44 -31 -55 -45 -17 -21 52 32 70 45 60 45 -6 -1 -25
-11 -43 -24z"/>
<path d="M2236 2198 c10 -14 21 -24 23 -22 3 3 -6 15 -18 27 l-24 22 19 -27z"/>
<path d="M900 2195 c-11 -13 -11 -18 0 -28 10 -9 11 -9 5 2 -4 8 -2 17 6 22 7
4 11 11 8 14 -4 3 -12 -2 -19 -10z"/>
<path d="M1950 2206 c0 -3 9 -10 20 -16 11 -6 20 -8 20 -6 0 3 -9 10 -20 16
-11 6 -20 8 -20 6z"/>
<path d="M1533 2193 c15 -2 37 -2 50 0 12 2 0 4 -28 4 -27 0 -38 -2 -22 -4z"/>
<path d="M2073 2170 c-18 -16 -33 -33 -33 -37 0 -3 10 3 23 15 13 12 27 20 30
17 4 -3 5 -2 2 2 -3 3 0 12 6 20 19 22 6 14 -28 -17z"/>
<path d="M1463 2183 c9 -2 23 -2 30 0 6 3 -1 5 -18 5 -16 0 -22 -2 -12 -5z"/>
<path d="M1668 2183 c6 -2 18 -2 25 0 6 3 1 5 -13 5 -14 0 -19 -2 -12 -5z"/>
<path d="M1418 2173 c7 -3 16 -2 19 1 4 3 -2 6 -13 5 -11 0 -14 -3 -6 -6z"/>
<path d="M1718 2173 c7 -3 16 -2 19 1 4 3 -2 6 -13 5 -11 0 -14 -3 -6 -6z"/>
<path d="M1334 2152 c-22 -9 -52 -25 -65 -35 -18 -13 -13 -12 20 4 25 12 61
27 80 34 20 8 29 14 21 14 -8 0 -33 -8 -56 -17z"/>
<path d="M1765 2160 c27 -12 43 -12 25 0 -8 5 -22 9 -30 9 -10 0 -8 -3 5 -9z"/>
<path d="M2219 2133 c-13 -16 -12 -17 4 -4 9 7 17 15 17 17 0 8 -8 3 -21 -13z"/>
<path d="M1850 2126 c0 -2 7 -7 16 -10 8 -3 12 -2 9 4 -6 10 -25 14 -25 6z"/>
<path d="M940 2105 c0 -2 6 -8 13 -14 10 -8 14 -7 14 2 0 8 -6 14 -14 14 -7 0
-13 -1 -13 -2z"/>
<path d="M1891 2107 c2 -1 13 -9 24 -17 19 -14 19 -14 6 3 -7 9 -18 17 -24 17
-6 0 -8 -1 -6 -3z"/>
<path d="M2188 2093 c-18 -21 -31 -43 -25 -43 2 0 13 14 25 30 25 33 24 41 0
13z"/>
<path d="M1204 2079 c-19 -22 -19 -22 4 -8 12 8 22 17 22 21 0 12 -6 9 -26
-13z"/>
<path d="M1554 2078 c-19 -23 -19 -23 2 -5 26 21 33 21 56 0 22 -20 24 -11 2
11 -21 22 -38 20 -60 -6z"/>
<path d="M1948 2068 c5 -5 16 -8 23 -6 8 3 3 7 -10 11 -17 4 -21 3 -13 -5z"/>
<path d="M1631 2050 c0 -3 6 -27 14 -54 22 -71 19 -93 -12 -111 -26 -15 -16
-14 22 1 12 5 15 -2 15 -31 l0 -37 -27 17 c-44 29 -99 58 -80 42 18 -15 17
-17 -22 -37 -37 -18 -41 -19 -41 -4 0 10 -3 15 -6 12 -3 -3 -5 -34 -5 -69 -1
-89 2 -128 8 -106 2 9 7 17 9 17 10 0 54 -33 54 -40 0 -7 -30 -22 -50 -25 -3
0 -14 -6 -25 -14 -14 -9 -15 -11 -3 -7 10 3 18 -2 21 -12 4 -16 5 -16 6 0 1
11 30 32 81 57 l80 41 0 -40 c0 -45 0 -46 -40 -25 -17 9 -30 13 -30 11 0 -3
14 -13 31 -22 29 -15 31 -18 25 -57 -9 -55 -41 -126 -61 -133 -9 -4 -26 2 -38
12 l-22 18 22 -23 c13 -14 28 -21 37 -18 24 9 54 65 67 124 7 29 15 53 18 53
8 0 5 130 -3 137 -3 4 -6 -1 -6 -10 0 -15 -66 -57 -90 -57 -6 0 -26 10 -45 23
-32 20 -35 26 -35 74 0 50 1 52 44 76 l44 25 34 -20 c18 -11 38 -25 43 -31 6
-7 22 -18 35 -25 l25 -13 -22 20 c-18 15 -23 30 -23 64 0 27 5 47 13 50 7 4 6
6 -4 6 -12 1 -19 14 -23 44 -6 36 -33 112 -35 97z"/>
<path d="M969 2013 c-13 -16 -12 -17 4 -4 9 7 17 15 17 17 0 8 -8 3 -21 -13z"/>
<path d="M2160 2026 c0 -2 8 -10 18 -17 15 -13 16 -12 3 4 -13 16 -21 21 -21
13z"/>
<path d="M2035 2000 c10 -11 20 -20 23 -20 3 0 -3 9 -13 20 -10 11 -20 20 -23
20 -3 0 3 -9 13 -20z"/>
<path d="M930 1960 c-6 -11 -8 -20 -6 -20 3 0 10 9 16 20 6 11 8 20 6 20 -3 0
-10 -9 -16 -20z"/>
<path d="M735 1959 c-11 -16 -1 -19 13 -3 7 8 8 14 3 14 -5 0 -13 -5 -16 -11z"/>
<path d="M2075 1950 c10 -11 22 -20 27 -20 4 0 -1 9 -12 20 -11 11 -23 20 -27
20 -3 0 2 -9 12 -20z"/>
<path d="M2398 1961 c7 -4 14 -17 15 -29 1 -13 5 -18 10 -13 11 11 -9 51 -26
51 -9 0 -8 -3 1 -9z"/>
<path d="M770 1956 c0 -2 7 -7 16 -10 8 -3 12 -2 9 4 -6 10 -25 14 -25 6z"/>
<path d="M857 1929 c7 -7 15 -10 18 -7 3 3 -2 9 -12 12 -14 6 -15 5 -6 -5z"/>
<path d="M1497 1923 c-3 -5 -2 -15 2 -22 5 -7 11 -9 14 -4 3 5 2 15 -2 22 -5
7 -11 9 -14 4z"/>
<path d="M1019 1888 c-13 -18 -28 -36 -34 -40 -5 -4 -6 -8 -1 -8 5 0 1 -9 -9
-20 -10 -11 -15 -20 -11 -20 3 0 0 -13 -9 -30 -8 -16 -15 -35 -15 -42 0 -7 16
21 35 61 20 40 45 86 56 102 11 16 18 29 15 29 -2 0 -15 -15 -27 -32z"/>
<path d="M2133 1868 c16 -26 31 -48 32 -48 1 0 2 7 2 15 0 8 -5 15 -10 15 -6
0 -8 3 -4 6 3 3 -3 14 -14 25 -11 11 -18 23 -15 28 3 4 -1 8 -8 8 -8 0 -2 -17
17 -49z"/>
<path d="M1300 1903 c0 -6 9 -21 21 -34 l20 -24 -17 30 c-24 39 -24 40 -24 28z"/>
<path d="M704 1876 c1 -8 5 -18 8 -22 4 -3 5 1 4 10 -1 8 -5 18 -8 22 -4 3 -5
-1 -4 -10z"/>
<path d="M1846 1836 c-22 -28 -29 -42 -17 -31 26 23 65 75 60 79 -2 2 -22 -20
-43 -48z"/>
<path d="M2441 1874 c0 -11 3 -14 6 -6 3 7 2 16 -1 19 -3 4 -6 -2 -5 -13z"/>
<path d="M735 1850 c-3 -5 1 -10 10 -10 9 0 13 5 10 10 -3 6 -8 10 -10 10 -2
0 -7 -4 -10 -10z"/>
<path d="M1355 1821 c11 -13 43 -42 70 -64 28 -23 40 -30 27 -16 -12 14 -19
29 -15 34 5 4 2 5 -5 0 -9 -5 -28 6 -55 31 -23 22 -33 28 -22 15z"/>
<path d="M804 1812 c4 -3 14 -7 22 -8 9 -1 13 0 10 4 -4 3 -14 7 -22 8 -9 1
-13 0 -10 -4z"/>
<path d="M2170 1803 c0 -15 18 -35 23 -27 3 5 -1 15 -9 22 -8 7 -14 9 -14 5z"/>
<path d="M831 1775 c-1 -11 -4 -31 -7 -45 -5 -22 -4 -23 6 -7 6 10 9 30 7 45
-3 18 -5 20 -6 7z"/>
<path d="M1740 1750 c0 -5 5 -10 11 -10 5 0 7 5 4 10 -3 6 -8 10 -11 10 -2 0
-4 -4 -4 -10z"/>
<path d="M1801 1696 c14 -17 35 -44 47 -60 12 -16 22 -24 22 -18 0 6 -21 33
-47 59 -27 27 -36 35 -22 19z"/>
<path d="M1329 1693 l-24 -28 28 24 c25 23 32 31 24 31 -2 0 -14 -12 -28 -27z"/>
<path d="M2321 1694 c0 -11 3 -14 6 -6 3 7 2 16 -1 19 -3 4 -6 -2 -5 -13z"/>
<path d="M916 1633 c-3 -21 -5 -69 -4 -108 1 -63 2 -59 8 35 8 110 7 136 -4
73z"/>
<path d="M770 1641 c-34 -7 -35 -7 -8 -12 18 -4 32 -1 39 7 6 8 10 13 8 13 -2
-1 -20 -5 -39 -8z"/>
<path d="M2310 1630 c-9 -6 -10 -10 -3 -10 6 0 15 5 18 10 8 12 4 12 -15 0z"/>
<path d="M2425 1626 c69 -11 105 -11 93 -1 -2 1 -41 5 -88 8 l-85 5 80 -12z"/>
<path d="M630 1570 c0 -33 3 -60 8 -60 4 0 5 24 4 54 l-4 55 49 4 48 3 -52 2
-53 2 0 -60z"/>
<path d="M1280 1611 c0 -11 4 -22 9 -25 4 -3 6 6 3 19 -5 30 -12 33 -12 6z"/>
<path d="M1867 1581 c-4 -17 -3 -21 5 -13 5 5 8 16 6 23 -3 8 -7 3 -11 -10z"/>
<path d="M2501 1584 c0 -11 3 -14 6 -6 3 7 2 16 -1 19 -3 4 -6 -2 -5 -13z"/>
<path d="M2232 1530 c0 -14 2 -19 5 -12 2 6 2 18 0 25 -3 6 -5 1 -5 -13z"/>
<path d="M683 1503 c9 -2 25 -2 35 0 9 3 1 5 -18 5 -19 0 -27 -2 -17 -5z"/>
<path d="M2433 1503 c9 -2 25 -2 35 0 9 3 1 5 -18 5 -19 0 -27 -2 -17 -5z"/>
<path d="M748 1493 c6 -2 18 -2 25 0 6 3 1 5 -13 5 -14 0 -19 -2 -12 -5z"/>
<path d="M2373 1493 c9 -2 23 -2 30 0 6 3 -1 5 -18 5 -16 0 -22 -2 -12 -5z"/>
<path d="M815 1471 c-3 -5 -2 -12 3 -15 5 -3 9 1 9 9 0 17 -3 19 -12 6z"/>
<path d="M922 1420 c0 -14 2 -19 5 -12 2 6 2 18 0 25 -3 6 -5 1 -5 -13z"/>
<path d="M2331 1424 c0 -11 3 -14 6 -6 3 7 2 16 -1 19 -3 4 -6 -2 -5 -13z"/>
<path d="M823 1403 c-15 -6 -18 -43 -3 -43 5 0 6 7 3 17 -4 10 -2 14 4 10 5
-3 10 0 10 8 0 8 -1 15 -1 14 -1 0 -7 -3 -13 -6z"/>
<path d="M931 1374 c0 -11 3 -14 6 -6 3 7 2 16 -1 19 -3 4 -6 -2 -5 -13z"/>
<path d="M941 1340 c0 -8 4 -22 9 -30 12 -18 12 -2 0 25 -6 13 -9 15 -9 5z"/>
<path d="M1586 1314 c-20 -18 -32 -22 -39 -15 -6 6 -16 11 -21 11 -16 -1 26
-24 44 -25 8 0 24 4 35 9 11 6 43 13 70 17 l50 7 -50 -2 c-27 -1 -59 -6 -70
-10 -17 -7 -17 -5 4 13 13 12 19 21 15 21 -5 0 -22 -12 -38 -26z"/>
<path d="M2327 1329 c7 -7 15 -10 18 -7 3 3 -2 9 -12 12 -14 6 -15 5 -6 -5z"/>
<path d="M1338 1313 c7 -3 16 -2 19 1 4 3 -2 6 -13 5 -11 0 -14 -3 -6 -6z"/>
<path d="M1448 1313 c12 -2 32 -2 45 0 12 2 2 4 -23 4 -25 0 -35 -2 -22 -4z"/>
<path d="M1388 1303 c7 -3 16 -2 19 1 4 3 -2 6 -13 5 -11 0 -14 -3 -6 -6z"/>
<path d="M1738 1303 c7 -3 16 -2 19 1 4 3 -2 6 -13 5 -11 0 -14 -3 -6 -6z"/>
<path d="M1778 1293 c7 -3 16 -2 19 1 4 3 -2 6 -13 5 -11 0 -14 -3 -6 -6z"/>
<path d="M960 1284 c0 -5 15 -36 34 -67 19 -30 33 -57 31 -59 -2 -2 3 -9 11
-16 19 -18 18 -2 -3 28 -9 13 -29 47 -45 74 -15 28 -28 46 -28 40z"/>
<path d="M1318 1283 c7 -3 16 -2 19 1 4 3 -2 6 -13 5 -11 0 -14 -3 -6 -6z"/>
<path d="M1465 1281 c33 -3 67 -10 75 -16 20 -13 40 -13 65 0 11 5 47 12 80
16 l60 6 -53 1 c-30 1 -65 -4 -82 -13 -22 -11 -30 -12 -34 -2 -5 9 -7 9 -12 0
-4 -10 -10 -10 -27 2 -14 10 -42 14 -77 13 l-55 -1 60 -6z"/>
<path d="M1345 1270 c-25 -11 1 -11 35 0 20 6 21 8 5 8 -11 0 -29 -3 -40 -8z"/>
<path d="M1758 1273 c7 -3 16 -2 19 1 4 3 -2 6 -13 5 -11 0 -14 -3 -6 -6z"/>
<path d="M670 1263 c0 -5 5 -15 10 -23 7 -12 9 -10 7 8 -1 19 -17 33 -17 15z"/>
<path d="M1805 1260 c11 -5 27 -9 35 -9 9 0 8 4 -5 9 -11 5 -27 9 -35 9 -9 0
-8 -4 5 -9z"/>
<path d="M2460 1248 c0 -19 2 -20 10 -8 13 19 13 30 0 30 -5 0 -10 -10 -10
-22z"/>
<path d="M1457 1251 c57 -5 77 -11 97 -30 33 -31 26 -40 -10 -12 -15 11 -38
21 -53 20 -23 -1 -23 -2 7 -9 18 -4 41 -15 52 -25 18 -16 20 -16 46 4 15 12
22 21 17 21 -5 0 -14 -5 -21 -12 -9 -9 -12 -9 -12 0 0 38 121 54 220 27 62
-16 82 -12 23 5 -68 21 -177 24 -211 7 -23 -11 -33 -12 -37 -3 -4 8 -7 8 -11
-1 -4 -10 -10 -10 -27 2 -14 10 -43 14 -87 13 l-65 -1 72 -6z"/>
<path d="M1325 1240 c-25 -11 1 -11 35 0 20 6 21 8 5 8 -11 0 -29 -3 -40 -8z"/>
<path d="M2156 1233 c-6 -14 -5 -15 5 -6 7 7 10 15 7 18 -3 3 -9 -2 -12 -12z"/>
<path d="M1388 1223 c12 -2 30 -2 40 0 9 3 -1 5 -23 4 -22 0 -30 -2 -17 -4z"/>
<path d="M1643 1223 c9 -2 23 -2 30 0 6 3 -1 5 -18 5 -16 0 -22 -2 -12 -5z"/>
<path d="M1745 1220 c28 -4 68 -12 89 -18 22 -6 35 -8 30 -3 -14 13 -99 31
-136 30 -26 -1 -22 -3 17 -9z"/>
<path d="M690 1215 c0 -5 5 -17 10 -25 5 -8 10 -10 10 -5 0 6 -5 17 -10 25 -5
8 -10 11 -10 5z"/>
<path d="M1338 1213 c7 -3 16 -2 19 1 4 3 -2 6 -13 5 -11 0 -14 -3 -6 -6z"/>
<path d="M2446 1205 c-9 -26 -7 -32 5 -12 6 10 9 21 6 23 -2 3 -7 -2 -11 -11z"/>
<path d="M1298 1203 c7 -3 16 -2 19 1 4 3 -2 6 -13 5 -11 0 -14 -3 -6 -6z"/>
<path d="M1438 1203 c7 -3 16 -2 19 1 4 3 -2 6 -13 5 -11 0 -14 -3 -6 -6z"/>
<path d="M2130 1190 c-6 -11 -8 -20 -6 -20 3 0 10 9 16 20 6 11 8 20 6 20 -3
0 -10 -9 -16 -20z"/>
<path d="M1363 1193 c9 -2 25 -2 35 0 9 3 1 5 -18 5 -19 0 -27 -2 -17 -5z"/>
<path d="M1502 1190 c14 -4 32 -11 40 -15 7 -3 4 1 -6 9 -11 9 -29 16 -40 15
-17 -1 -16 -2 6 -9z"/>
<path d="M1638 1193 c7 -3 16 -2 19 1 4 3 -2 6 -13 5 -11 0 -14 -3 -6 -6z"/>
<path d="M1753 1193 c9 -2 23 -2 30 0 6 3 -1 5 -18 5 -16 0 -22 -2 -12 -5z"/>
<path d="M1318 1183 c7 -3 16 -2 19 1 4 3 -2 6 -13 5 -11 0 -14 -3 -6 -6z"/>
<path d="M1577 1166 c-22 -18 -25 -25 -15 -33 10 -8 19 -6 37 8 13 10 19 19
13 19 -5 0 -15 -7 -22 -15 -7 -8 -17 -12 -22 -9 -5 3 5 17 23 30 18 13 29 24
23 24 -5 -1 -22 -11 -37 -24z"/>
<path d="M1808 1183 c6 -2 18 -2 25 0 6 3 1 5 -13 5 -14 0 -19 -2 -12 -5z"/>
<path d="M2355 1180 c27 -12 43 -12 25 0 -8 5 -22 9 -30 9 -10 0 -8 -3 5 -9z"/>
<path d="M896 1171 c-3 -4 1 -17 10 -27 14 -18 15 -18 5 2 -6 12 -7 24 -4 28
3 3 4 6 0 6 -3 0 -8 -4 -11 -9z"/>
<path d="M1278 1173 c7 -3 16 -2 19 1 4 3 -2 6 -13 5 -11 0 -14 -3 -6 -6z"/>
<path d="M1423 1173 c9 -2 23 -2 30 0 6 3 -1 5 -18 5 -16 0 -22 -2 -12 -5z"/>
<path d="M1693 1173 c9 -2 23 -2 30 0 6 3 -1 5 -18 5 -16 0 -22 -2 -12 -5z"/>
<path d="M2245 1161 c-3 -12 -10 -19 -15 -16 -4 3 -10 -6 -12 -20 -3 -14 -4
-25 -2 -25 7 0 46 72 41 76 -3 3 -8 -4 -12 -15z"/>
<path d="M718 1163 c7 -3 16 -2 19 1 4 3 -2 6 -13 5 -11 0 -14 -3 -6 -6z"/>
<path d="M1348 1163 c6 -2 18 -2 25 0 6 3 1 5 -13 5 -14 0 -19 -2 -12 -5z"/>
<path d="M1498 1163 c7 -3 16 -2 19 1 4 3 -2 6 -13 5 -11 0 -14 -3 -6 -6z"/>
<path d="M1773 1163 c9 -2 23 -2 30 0 6 3 -1 5 -18 5 -16 0 -22 -2 -12 -5z"/>
<path d="M2418 1163 c7 -3 16 -2 19 1 4 3 -2 6 -13 5 -11 0 -14 -3 -6 -6z"/>
<path d="M1298 1153 c7 -3 16 -2 19 1 4 3 -2 6 -13 5 -11 0 -14 -3 -6 -6z"/>
<path d="M2100 1145 c-7 -9 -8 -15 -2 -15 5 0 12 7 16 15 3 8 4 15 2 15 -2 0
-9 -7 -16 -15z"/>
<path d="M1258 1143 c7 -3 16 -2 19 1 4 3 -2 6 -13 5 -11 0 -14 -3 -6 -6z"/>
<path d="M2062 1097 c-17 -18 -19 -24 -7 -24 8 0 13 3 10 5 -3 3 2 14 12 24
24 27 10 22 -15 -5z"/>
<path d="M2193 1079 c-7 -7 -1 -19 18 -41 16 -16 26 -35 22 -41 -3 -6 -1 -7 5
-3 7 4 12 3 12 -3 0 -5 -3 -11 -7 -14 -5 -2 -2 -2 6 0 7 2 21 -2 30 -9 8 -7
-6 12 -32 42 -26 30 -45 61 -42 67 5 16 2 16 -12 2z"/>
<path d="M900 1008 c-25 -30 -32 -42 -16 -28 28 25 71 80 63 80 -2 0 -23 -24
-47 -52z"/>
<path d="M1134 1042 c8 -13 66 -56 66 -49 0 3 -17 17 -37 33 -20 15 -33 23
-29 16z"/>
<path d="M1965 1010 c-27 -21 -77 -52 -110 -69 -40 -21 -50 -29 -30 -25 17 4
34 10 39 15 5 4 14 6 20 5 6 -2 8 -1 4 1 -5 3 19 22 51 44 49 33 93 71 80 68
-2 0 -26 -17 -54 -39z"/>
<path d="M1214 981 c7 -11 46 -35 46 -28 0 3 -12 12 -26 22 -15 9 -23 12 -20
6z"/>
<path d="M963 973 c26 -2 67 -2 90 0 23 2 2 3 -48 3 -49 0 -68 -1 -42 -3z"/>
<path d="M2097 973 c18 -2 50 -2 70 0 21 2 7 4 -32 4 -38 0 -55 -2 -38 -4z"/>
<path d="M1958 953 c7 -3 16 -2 19 1 4 3 -2 6 -13 5 -11 0 -14 -3 -6 -6z"/>
<path d="M1229 939 c14 -5 30 -8 38 -5 7 3 15 1 18 -4 4 -6 14 -10 23 -10 34
1 -16 21 -61 25 -35 3 -38 2 -18 -6z"/>
<path d="M1918 943 c7 -3 16 -2 19 1 4 3 -2 6 -13 5 -11 0 -14 -3 -6 -6z"/>
<path d="M1505 860 c48 -24 49 -25 28 -2 -10 10 -29 19 -43 20 -20 2 -17 -2
15 -18z"/>
<path d="M1640 871 c0 -5 9 -7 20 -4 11 3 20 7 20 9 0 2 -9 4 -20 4 -11 0 -20
-4 -20 -9z"/>
<path d="M1616 853 c-6 -14 -5 -15 5 -6 7 7 10 15 7 18 -3 3 -9 -2 -12 -12z"/>
<path d="M905 830 c-4 -6 -1 -18 6 -26 11 -14 13 -14 21 0 15 26 -12 51 -27
26z"/>
<path d="M1585 830 c-4 -6 -11 -7 -17 -4 -7 4 -8 2 -4 -5 6 -9 11 -9 22 0 14
11 18 19 10 19 -3 0 -8 -5 -11 -10z"/>
<path d="M635 2401 c-17 -28 24 -42 45 -16 8 9 8 15 2 15 -6 0 -17 3 -25 6 -8
3 -18 1 -22 -5z"/>
<path d="M467 2133 c-26 -18 -37 -33 -35 -46 6 -38 27 -29 53 22 14 28 24 51
23 50 -2 0 -20 -12 -41 -26z"/>
<path d="M417 1876 c-3 -8 1 -17 10 -20 10 -4 14 -15 11 -31 -6 -30 7 -34 15
-5 6 22 30 29 25 7 -2 -7 2 -13 7 -14 12 -2 10 47 -2 57 -18 16 -61 20 -66 6z"/>
<path d="M370 1610 c0 -15 7 -20 29 -20 16 0 31 6 34 14 8 19 -1 26 -35 26
-21 0 -28 -5 -28 -20z"/>
<path d="M2582 2024 c-42 -29 -19 -46 33 -22 29 13 34 38 7 38 -10 0 -28 -7
-40 -16z"/>
<path d="M550 1021 c0 -12 5 -21 10 -21 6 0 10 6 10 14 0 8 -4 18 -10 21 -5 3
-10 -3 -10 -14z"/>
<path d="M470 949 c0 -49 16 -74 39 -60 10 7 7 19 -13 57 l-25 49 -1 -46z"/>
<path d="M2652 1378 c5 -15 88 -24 88 -10 0 13 -25 22 -62 22 -19 0 -28 -4
-26 -12z"/>
<path d="M2620 1216 c0 -16 21 -26 56 -26 29 0 31 15 5 30 -28 14 -61 12 -61
-4z"/>
<path d="M2246 861 c-3 -5 1 -14 9 -21 9 -8 13 -21 9 -32 -5 -15 -2 -19 12
-16 25 5 30 35 8 59 -19 21 -30 24 -38 10z"/>
<path d="M2085 734 c-11 -8 -27 -19 -35 -24 -8 -5 -12 -11 -8 -15 5 -6 88 42
88 51 0 9 -27 2 -45 -12z"/>
<path d="M1807 683 c-9 -8 -9 -43 -1 -43 18 0 84 24 84 30 0 4 -14 10 -31 14
-39 8 -44 8 -52 -1z"/>
<path d="M1992 681 c-14 -8 -6 -41 9 -41 14 0 23 30 13 40 -5 5 -15 6 -22 1z"/>
<path d="M1147 743 c-16 -15 -4 -31 33 -46 46 -18 48 -16 19 24 -20 28 -39 36
-52 22z"/>
<path d="M1316 604 c-4 -12 -14 -14 -36 -9 -38 8 -39 -2 -2 -17 26 -11 26 -12
5 -15 -34 -6 -28 -23 7 -23 24 0 33 6 40 26 12 32 13 54 1 54 -5 0 -12 -7 -15
-16z"/>
<path d="M1576 566 c3 -7 -2 -20 -10 -29 -22 -22 -20 -29 7 -25 17 2 23 11 25
36 2 23 -1 32 -12 32 -9 0 -13 -6 -10 -14z"/>
<path d="M1215 400 c-8 -26 -8 -26 31 -34 20 -5 35 -2 42 6 15 19 3 34 -35 42
-26 6 -32 4 -38 -14z"/>
<path d="M1382 356 c-10 -22 -9 -28 3 -33 23 -8 28 2 18 33 l-9 26 -12 -26z"/>
<path d="M915 2890 c-3 -6 1 -7 9 -4 18 7 21 14 7 14 -6 0 -13 -4 -16 -10z"/>
<path d="M2210 2896 c0 -2 7 -7 16 -10 8 -3 12 -2 9 4 -6 10 -25 14 -25 6z"/>
<path d="M629 2703 c-13 -16 -12 -17 4 -4 9 7 17 15 17 17 0 8 -8 3 -21 -13z"/>
<path d="M2500 2716 c0 -2 8 -10 18 -17 15 -13 16 -12 3 4 -13 16 -21 21 -21
13z"/>
<path d="M584 2668 l-19 -23 23 19 c21 18 27 26 19 26 -2 0 -12 -10 -23 -22z"/>
<path d="M2540 2686 c0 -2 8 -10 18 -17 15 -13 16 -12 3 4 -13 16 -21 21 -21
13z"/>
<path d="M614 2608 l-29 -33 33 29 c17 17 32 31 32 33 0 8 -8 1 -36 -29z"/>
<path d="M549 2543 l-24 -28 28 24 c25 23 32 31 24 31 -2 0 -14 -12 -28 -27z"/>
<path d="M2690 2535 c13 -14 26 -25 28 -25 3 0 -5 11 -18 25 -13 14 -26 25
-28 25 -3 0 5 -11 18 -25z"/>
<path d="M2720 2496 c0 -2 8 -10 18 -17 15 -13 16 -12 3 4 -13 16 -21 21 -21
13z"/>
<path d="M399 2473 c-13 -16 -12 -17 4 -4 9 7 17 15 17 17 0 8 -8 3 -21 -13z"/>
<path d="M206 2165 c-9 -26 -7 -32 5 -12 6 10 9 21 6 23 -2 3 -7 -2 -11 -11z"/>
<path d="M101 1844 c0 -11 3 -14 6 -6 3 7 2 16 -1 19 -3 4 -6 -2 -5 -13z"/>
<path d="M3041 1844 c0 -11 3 -14 6 -6 3 7 2 16 -1 19 -3 4 -6 -2 -5 -13z"/>
<path d="M91 1794 c0 -11 3 -14 6 -6 3 7 2 16 -1 19 -3 4 -6 -2 -5 -13z"/>
<path d="M3051 1794 c0 -11 3 -14 6 -6 3 7 2 16 -1 19 -3 4 -6 -2 -5 -13z"/>
<path d="M82 1730 c0 -14 2 -19 5 -12 2 6 2 18 0 25 -3 6 -5 1 -5 -13z"/>
<path d="M3062 1730 c0 -14 2 -19 5 -12 2 6 2 18 0 25 -3 6 -5 1 -5 -13z"/>
<path d="M74 1540 c0 -74 1 -105 3 -67 2 37 2 97 0 135 -2 37 -3 6 -3 -68z"/>
<path d="M3073 1630 c0 -25 2 -35 4 -22 2 12 2 32 0 45 -2 12 -4 2 -4 -23z"/>
<path d="M3073 1460 c0 -30 2 -43 4 -27 2 15 2 39 0 55 -2 15 -4 2 -4 -28z"/>
<path d="M82 1350 c0 -14 2 -19 5 -12 2 6 2 18 0 25 -3 6 -5 1 -5 -13z"/>
<path d="M3062 1350 c0 -14 2 -19 5 -12 2 6 2 18 0 25 -3 6 -5 1 -5 -13z"/>
<path d="M91 1284 c0 -11 3 -14 6 -6 3 7 2 16 -1 19 -3 4 -6 -2 -5 -13z"/>
<path d="M3051 1284 c0 -11 3 -14 6 -6 3 7 2 16 -1 19 -3 4 -6 -2 -5 -13z"/>
<path d="M101 1234 c0 -11 3 -14 6 -6 3 7 2 16 -1 19 -3 4 -6 -2 -5 -13z"/>
<path d="M210 906 c0 -8 4 -17 9 -20 5 -4 7 3 4 14 -6 23 -13 26 -13 6z"/>
<path d="M2911 873 c-10 -26 -10 -27 4 -9 8 11 15 23 15 28 0 15 -7 8 -19 -19z"/>
<path d="M2886 823 c-6 -14 -5 -15 5 -6 7 7 10 15 7 18 -3 3 -9 -2 -12 -12z"/>
<path d="M390 616 c0 -2 8 -10 18 -17 15 -13 16 -12 3 4 -13 16 -21 21 -21 13z"/>
<path d="M490 595 c13 -14 25 -25 27 -25 9 0 -33 49 -41 50 -5 0 1 -11 14 -25z"/>
<path d="M2739 603 c-13 -16 -12 -17 4 -4 16 13 21 21 13 21 -2 0 -10 -8 -17
-17z"/>
<path d="M2689 543 l-24 -28 28 24 c15 14 27 26 27 28 0 8 -8 1 -31 -24z"/>
<path d="M585 410 c10 -11 20 -20 23 -20 3 0 -3 9 -13 20 -10 11 -20 20 -23
20 -3 0 3 -9 13 -20z"/>
<path d="M2554 408 l-19 -23 23 19 c21 18 27 26 19 26 -2 0 -12 -10 -23 -22z"/>
<path d="M620 386 c0 -2 8 -10 18 -17 15 -13 16 -12 3 4 -13 16 -21 21 -21 13z"/>
<path d="M2509 373 c-13 -16 -12 -17 4 -4 16 13 21 21 13 21 -2 0 -10 -8 -17
-17z"/>
<path d="M877 209 c7 -7 15 -10 18 -7 3 3 -2 9 -12 12 -14 6 -15 5 -6 -5z"/>
<path d="M2260 210 c-8 -5 -10 -10 -5 -10 6 0 17 5 25 10 8 5 11 10 5 10 -5 0
-17 -5 -25 -10z"/>
<path d="M1050 200 c8 -5 20 -10 25 -10 6 0 3 5 -5 10 -8 5 -19 10 -25 10 -5
0 -3 -5 5 -10z"/>
<path d="M917 189 c7 -7 15 -10 18 -7 3 3 -2 9 -12 12 -14 6 -15 5 -6 -5z"/>
<path d="M1858 63 c7 -3 16 -2 19 1 4 3 -2 6 -13 5 -11 0 -14 -3 -6 -6z"/>
<path d="M1328 53 c7 -3 16 -2 19 1 4 3 -2 6 -13 5 -11 0 -14 -3 -6 -6z"/>
<path d="M1798 53 c6 -2 18 -2 25 0 6 3 1 5 -13 5 -14 0 -19 -2 -12 -5z"/>
<path d="M1398 43 c7 -3 16 -2 19 1 4 3 -2 6 -13 5 -11 0 -14 -3 -6 -6z"/>
<path d="M1728 43 c6 -2 18 -2 25 0 6 3 1 5 -13 5 -14 0 -19 -2 -12 -5z"/>
<path d="M1528 33 c29 -2 74 -2 100 0 26 2 2 3 -53 3 -55 0 -76 -1 -47 -3z"/>
</g>
</svg>
