<?xml version="1.0" standalone="no"?>
<!DOCTYPE svg PUBLIC "-//W3C//DTD SVG 20010904//EN"
 "http://www.w3.org/TR/2001/REC-SVG-20010904/DTD/svg10.dtd">
<svg version="1.0" xmlns="http://www.w3.org/2000/svg"
 width="1000.000000pt" height="1000.000000pt" viewBox="0 0 1000.000000 1000.000000"
 preserveAspectRatio="xMidYMid meet">

<g transform="translate(0.000000,1000.000000) scale(0.100000,-0.100000)"
fill="#000000" stroke="none">
<path d="M4827 7819 c-98 -4 -195 -10 -215 -13 -127 -22 -260 -50 -282 -58
-14 -6 -47 -16 -75 -23 -211 -56 -619 -275 -770 -414 -22 -20 -60 -51 -85 -68
-49 -33 -209 -201 -287 -299 -239 -304 -387 -616 -469 -989 -59 -269 -67 -621
-21 -882 42 -231 106 -439 194 -622 22 -46 31 -77 25 -83 -5 -5 -294 -11 -723
-14 -393 -3 -720 -7 -728 -10 -18 -6 18 -37 214 -184 83 -62 182 -139 220
-170 39 -31 133 -103 210 -160 l140 -105 947 -3 c746 -2 948 0 948 10 0 7 -71
85 -157 173 -197 200 -257 270 -326 376 -137 212 -203 372 -252 609 -41 197
-35 573 12 740 73 260 146 420 272 602 94 134 290 327 424 416 194 129 352
196 587 248 114 26 143 28 330 29 213 0 240 -3 435 -56 292 -79 581 -265 801
-517 276 -316 429 -750 411 -1171 -11 -263 -60 -462 -175 -711 -71 -155 -200
-323 -421 -550 -94 -96 -171 -181 -171 -187 0 -10 188 -13 908 -12 870 0 1006
4 1020 25 4 6 25 23 47 39 22 16 56 43 76 60 74 63 91 76 161 129 40 30 116
87 168 127 52 40 138 105 192 145 101 77 114 89 100 98 -7 4 -1208 18 -1394
16 -38 0 -48 3 -48 16 0 9 21 64 46 123 62 141 138 375 159 486 9 50 21 115
26 145 32 171 27 539 -11 735 -49 253 -103 411 -218 644 -150 304 -322 525
-585 753 -272 236 -640 428 -965 502 -261 59 -366 68 -695 55z"/>
<path d="M4850 6155 c-58 -18 -231 -71 -385 -118 -821 -249 -868 -264 -860
-277 2 -4 73 -38 157 -75 193 -85 268 -124 268 -140 0 -7 -7 -18 -16 -26 -26
-21 -65 -107 -80 -178 -19 -89 -18 -295 1 -405 40 -229 172 -433 356 -552 259
-168 482 -215 597 -127 49 37 92 133 92 204 0 63 -9 73 -112 133 l-48 28 0
-66 c0 -101 -17 -166 -54 -199 -28 -27 -35 -29 -88 -24 -119 11 -217 104 -269
256 -25 70 -49 218 -49 295 0 55 1 58 23 53 12 -3 148 -57 302 -121 154 -64
283 -116 288 -116 22 0 -7 253 -44 374 -11 37 -18 71 -14 74 3 3 21 -2 40 -11
31 -15 39 -15 82 -2 26 8 51 15 56 15 13 0 8 -33 -14 -89 -90 -239 -84 -617
14 -762 72 -107 234 -108 426 -3 182 100 298 233 356 408 23 70 51 214 43 221
-2 3 -34 2 -71 -2 l-67 -6 0 -92 c0 -116 -24 -200 -80 -278 -41 -57 -110 -107
-147 -107 -100 0 -152 100 -156 300 l-2 94 100 56 c222 125 366 202 385 207
16 4 23 0 27 -17 5 -18 11 -21 33 -16 26 5 207 80 216 89 3 2 -3 78 -13 168
-9 90 -17 191 -18 224 l0 60 75 32 c41 18 76 36 77 40 5 13 -46 39 -133 71
-44 16 -320 121 -615 235 -295 114 -545 207 -555 206 -11 0 -66 -16 -124 -34z
m344 -220 c130 -20 337 -63 344 -70 10 -10 -4 -15 -139 -55 -158 -47 -400
-130 -413 -141 -10 -9 30 -21 169 -51 81 -18 133 -22 275 -22 160 -1 180 1
235 23 67 26 91 44 80 60 -7 12 -98 61 -113 61 -16 0 -84 31 -79 36 6 6 36 12
127 26 72 10 78 10 140 -17 80 -33 100 -50 100 -86 0 -59 -128 -128 -341 -183
-186 -49 -325 -67 -508 -67 -385 -1 -742 82 -890 207 -27 22 -31 32 -31 74 0
44 4 52 33 74 18 14 64 37 103 52 69 26 276 79 369 94 76 13 427 3 539 -15z
m840 -383 c6 -10 -13 -89 -57 -237 -64 -214 -72 -221 -80 -72 -3 56 -14 133
-25 170 l-20 68 32 17 c35 19 127 60 138 61 4 1 9 -2 12 -7z m-1534 -204 c65
-29 92 -47 95 -62 10 -46 21 -282 14 -290 -5 -6 -57 11 -126 40 l-118 49 -3
90 c-2 50 0 118 3 153 8 77 11 77 135 20z m1083 -40 c3 -24 9 -84 13 -134 l7
-91 -101 -51 c-55 -29 -106 -52 -112 -52 -17 0 -4 290 13 307 16 16 127 61
153 62 18 1 22 -6 27 -41z"/>
<path d="M4491 5850 c-20 -9 -21 -13 -10 -26 7 -8 29 -24 48 -34 59 -29 228
-80 269 -80 39 0 183 58 189 76 2 6 -54 22 -134 38 -146 31 -322 43 -362 26z"/>
<path d="M8130 5290 l-535 -5 -7 -40 c-4 -22 -14 -85 -23 -140 -21 -132 -57
-281 -95 -389 -17 -48 -29 -94 -26 -102 4 -12 79 -14 450 -14 l445 0 43 28
c59 37 344 256 483 371 11 9 32 24 46 33 14 9 32 23 40 30 8 7 59 47 114 88
107 80 135 105 135 119 0 24 -225 29 -1070 21z"/>
<path d="M710 5280 c-18 -13 19 -48 166 -160 54 -41 153 -118 219 -170 66 -53
194 -152 285 -220 l165 -125 430 -3 c237 -2 445 0 464 3 38 7 40 -9 -18 183
-34 113 -58 222 -100 457 l-7 40 -794 2 c-527 2 -800 -1 -810 -7z"/>
<path d="M2052 3471 c-10 -6 5 -21 53 -55 36 -25 78 -53 93 -61 37 -21 46 -27
223 -141 85 -56 166 -107 180 -114 13 -7 74 -45 134 -85 61 -40 153 -98 205
-130 52 -33 138 -87 190 -120 52 -34 166 -106 253 -161 87 -54 206 -129 265
-166 196 -123 233 -143 232 -120 0 4 -18 41 -40 82 -22 41 -79 152 -126 245
-48 94 -105 204 -129 245 -43 78 -95 174 -185 345 -29 55 -60 111 -70 125 -10
14 -20 35 -24 47 -4 12 -16 33 -27 47 l-20 26 -597 0 c-328 0 -603 -4 -610 -9z"/>
<path d="M6624 3447 c-34 -52 -95 -163 -237 -432 -266 -505 -347 -664 -347
-681 0 -23 27 -16 87 23 72 45 239 154 316 205 32 21 60 38 62 38 6 0 413 255
770 483 39 24 105 66 148 93 43 27 112 70 153 97 40 26 76 47 79 47 3 0 40 24
82 53 41 28 86 59 99 67 13 8 22 20 21 25 -2 6 -216 11 -608 12 l-604 3 -21
-33z"/>
<path d="M4202 3367 c-29 -7 -59 -25 -92 -56 -61 -58 -77 -107 -59 -185 11
-49 16 -56 63 -84 28 -17 81 -45 118 -62 70 -32 108 -69 108 -102 0 -36 -28
-86 -66 -114 -47 -37 -117 -39 -181 -6 -34 18 -43 29 -49 57 -3 20 -4 49 0 65
5 26 3 30 -17 30 -36 0 -43 -11 -55 -85 -14 -82 -12 -85 77 -111 73 -21 211
-16 261 11 101 52 150 119 150 203 0 71 -23 94 -154 156 -154 72 -183 113
-133 187 30 45 83 79 121 79 17 0 49 -11 71 -23 41 -24 42 -27 34 -102 -4 -28
-2 -30 31 -33 l35 -3 12 73 c9 57 9 76 0 85 -29 29 -188 41 -275 20z"/>
<path d="M4883 3366 c-59 -19 -104 -49 -151 -100 -66 -72 -96 -142 -111 -264
-13 -103 7 -171 69 -232 112 -112 294 -101 429 25 67 62 99 120 123 218 25
105 20 169 -18 244 -44 85 -98 116 -212 120 -54 2 -103 -2 -129 -11z m164 -39
c69 -38 102 -145 83 -266 -23 -143 -79 -247 -162 -302 -79 -53 -160 -28 -205
61 -58 113 -4 357 100 458 61 59 132 78 184 49z"/>
<path d="M5640 3366 c-133 -37 -233 -159 -264 -325 -23 -118 -3 -197 67 -268
57 -59 115 -77 226 -71 84 5 171 34 171 57 0 16 -47 21 -100 11 -29 -5 -76 -7
-106 -4 -60 7 -87 30 -124 102 -20 37 -22 54 -17 125 6 103 37 201 82 260 44
57 145 111 187 99 41 -11 78 -67 78 -119 0 -41 1 -43 30 -43 36 0 46 20 56
105 7 53 6 54 -22 60 -16 4 -45 11 -64 16 -48 12 -146 10 -200 -5z"/>
</g>
</svg>
